<?xml version="1.0" ?><svg width="248px" height="248px" viewBox="0 0 32 32" xmlns="http://www.w3.org/2000/svg"><defs><style>.cls-1{fill:#dbe9fa;}.cls-2{fill:#d9dce1;}.cls-3{fill:#fff;}.cls-4{fill:#52acf9;}</style></defs><g data-name=" performance" id="_performance"><circle class="cls-1" cx="16" cy="16" r="16"/><rect class="cls-2" height="14" width="6" x="2" y="16"/><rect class="cls-3" height="19" width="6" x="11" y="11"/><polygon class="cls-4" points="23 1.4 16.92 9 20 9 20 30 26 30 26 9 29.08 9 23 1.4"/><path d="M2,30H8V16H2ZM4,18H6V28H4Zm7,12h6V11H11Zm2-17h2V28H13ZM23,1.4,16.92,9H20V30h6V9h3.08ZM24,7V28H22V7h-.92L23,4.6,24.92,7Z"/></g></svg>