<?xml version="1.0" encoding="iso-8859-1"?>
<!-- Generator: Adobe Illustrator 19.0.0, SVG Export Plug-In . SVG Version: 6.00 Build 0)  -->
<svg version="1.1" id="Layer_1" xmlns="http://www.w3.org/2000/svg" xmlns:xlink="http://www.w3.org/1999/xlink" x="0px" y="0px"
	 viewBox="0 0 512 512" style="enable-background:new 0 0 512 512;" xml:space="preserve">
<circle style="fill:#71C5F4;" cx="426.759" cy="344.607" r="38.95"/>
<path style="fill:#FCEA81;" d="M426.761,305.65v38.952l-27.538,27.538c-7.057-7.045-11.415-16.789-11.415-27.538
	C387.809,323.083,405.253,305.65,426.761,305.65z"/>
<circle style="fill:#F9C573;" cx="403.049" cy="115.985" r="99.921"/>
<path style="fill:#AF7C38;" d="M304.371,73.917c0.79-3.489,1.208-7.124,1.208-10.861c0-27.221-22.073-49.294-49.294-49.294
	S206.99,35.834,206.99,63.055c0,3.737,0.418,7.373,1.208,10.861"/>
<path style="fill:#9B6C34;" d="M206.99,63.055c0,3.737,0.418,7.373,1.208,10.861h28.636c-0.32-3.489-0.489-7.124-0.489-10.861
	c0-27.221,8.929-49.294,19.939-49.294C229.063,13.761,206.99,35.834,206.99,63.055z"/>
<g>
	<path style="fill:#E0B394;" d="M137.266,244.418c-14-0.621-25.144-12.171-25.144-26.318c0-14.542,11.787-26.341,26.341-26.341
		c1.31,0,2.597,0.09,3.861,0.282"/>
	<path style="fill:#E0B394;" d="M375.292,244.418c14-0.621,25.155-12.171,25.155-26.318c0-14.542-11.799-26.341-26.352-26.341
		c-1.31,0-2.608,0.102-3.861,0.282"/>
</g>
<path style="fill:#B3B3B3;" d="M309.528,339.857h-106.48c-38.564,0-69.827,31.262-69.827,69.827v87.422h246.133v-87.422
	C379.354,371.119,348.092,339.857,309.528,339.857z"/>
<path style="fill:#999999;" d="M246.072,339.857h-43.024c-38.564,0-69.827,31.262-69.827,69.827v87.422h43.024v-87.422
	C176.245,371.119,207.507,339.857,246.072,339.857z"/>
<path style="fill:#F7CBA4;" d="M218.178,358.277l-46.346-33.673c-24.491-17.794-37.741-47.219-34.829-77.352l8.039-83.186
	c5.537-57.294,53.683-101.012,111.243-101.012l0,0c57.56,0,105.706,43.718,111.243,101.012l8.039,83.186
	c2.912,30.133-10.338,59.557-34.829,77.352l-46.346,33.673C271.669,374.785,240.9,374.785,218.178,358.277z"/>
<path style="fill:#E0B394;" d="M165.844,263.646c-0.779,13.176,3.511,26.138,12.002,36.243l48.44,59.524
	c2.529,3.015,5.397,5.544,8.502,7.565c-5.826-2.032-11.426-4.945-16.608-8.705l-46.348-33.668
	c-24.489-17.794-37.733-47.217-34.82-77.351l8.028-83.188c5.487-56.735,52.749-100.158,109.574-100.982
	c-35.001,0.847-74.634,33.838-76.7,68.974L165.844,263.646z"/>
<path style="fill:#AF7C38;" d="M367.532,164.064l1.287,13.368C330.443,195.383,283,157.222,283,157.222
	c-58.711,37.259-137.959,6.842-137.959,6.842c5.532-57.288,53.686-101.005,111.245-101.005c28.78,0,55.199,10.929,75.127,29.017
	C351.342,110.174,364.755,135.42,367.532,164.064z"/>
<path style="fill:#9B6C34;" d="M190.203,164.064c0,0,14.576,9.382,33.544,11.347c-41.978,2.755-78.706-11.347-78.706-11.347
	c5.532-57.288,53.686-101.005,111.245-101.005C222.077,63.284,193.489,106.922,190.203,164.064z"/>
<path style="fill:#F95428;" d="M485.394,59.37c11.087,16.089,17.579,35.588,17.579,56.611c0,33.815-16.8,63.712-42.509,81.788
	l-57.412-81.788L485.394,59.37z"/>
<path style="fill:#71C5F4;" d="M485.394,59.37l-82.342,56.611V16.06C437.217,16.06,467.374,33.21,485.394,59.37z"/>
<rect x="139.991" y="417.419" style="fill:#F9C573;" width="40.644" height="79.688"/>
<rect x="73.953" y="395.403" style="fill:#71C5F4;" width="40.644" height="101.705"/>
<rect x="7.903" y="371.693" style="fill:#F95428;" width="40.644" height="125.404"/>
<path d="M159.534,347.28c-11.05,6.708-20.07,16.293-26.083,27.719c-2.178,4.139-0.589,9.259,3.55,11.437
	c1.259,0.663,2.607,0.977,3.937,0.977c3.043,0,5.985-1.646,7.5-4.525c4.584-8.708,11.46-16.016,19.886-21.13
	c3.998-2.426,5.27-7.635,2.844-11.633C168.741,346.127,163.533,344.853,159.534,347.28z"/>
<path d="M354.152,347.28c-3.996-2.426-9.205-1.153-11.633,2.844c-2.426,3.998-1.153,9.206,2.845,11.633
	c16.333,9.915,26.084,27.216,26.084,46.279v81.168H265.318v-91.538c0-4.677-3.79-8.468-8.468-8.468
	c-4.677,0-8.468,3.791-8.468,8.468v91.538h-34.436c-4.677,0-8.468,3.791-8.468,8.468c0,4.677,3.791,8.468,8.468,8.468h165.971
	c4.678,0,8.468-3.791,8.468-8.468v-89.635C388.385,383.005,375.588,360.293,354.152,347.28z"/>
<path d="M167.419,332.02l46.346,33.673l0,0c12.886,9.363,27.982,14.043,43.083,14.043c15.097-0.001,30.2-4.681,43.082-14.042
	l46.348-33.673c25.454-18.494,39.953-48.815,38.612-80.063c14.313-4.363,24.587-17.629,24.587-33.291
	c0-17.903-13.593-32.688-31.003-34.595l-1.958-20.253c-2.88-29.809-16.677-57.313-38.848-77.445
	c-7.173-6.513-15.031-12.073-23.392-16.623c0.216-2.031,0.331-4.078,0.331-6.127c0-31.851-25.912-57.762-57.761-57.762
	c-31.851,0-57.763,25.912-57.763,57.762c0,2.05,0.116,4.096,0.332,6.127c-8.361,4.55-16.22,10.111-23.393,16.623
	c-22.171,20.132-35.968,47.636-38.848,77.445l-1.957,20.253c-17.409,1.902-31.002,16.69-31.002,34.596
	c0,15.666,10.275,28.934,24.587,33.293C127.468,283.208,141.965,313.526,167.419,332.02z M336.325,318.318l-46.348,33.673
	c-19.815,14.395-46.441,14.397-66.257,0l0,0l-46.346-33.673c-21.966-15.959-33.989-42.661-31.377-69.687l7.022-72.657
	c23.45,6.897,81.641,19.386,130.048-8.023c10.472,7.354,36.378,23.33,63.793,23.328c5.022,0,10.093-0.559,15.13-1.783l5.715,59.134
	C370.314,275.656,358.291,302.359,336.325,318.318z M392.544,218.665c0,6.731-3.701,12.591-9.212,15.641l-3.153-32.633
	C387.346,204.003,392.544,210.735,392.544,218.665z M256.85,22.793c22.057,0,40.072,17.586,40.791,39.472
	c-12.959-4.672-26.738-7.114-40.793-7.114c-14.053,0-27.832,2.442-40.791,7.114C216.776,40.378,234.792,22.793,256.85,22.793z
	 M187.411,98.908c19.048-17.297,43.709-26.822,69.439-26.822c25.729,0,50.39,9.526,69.438,26.822
	c19.048,17.296,30.901,40.926,33.377,66.536l0.673,6.963c-32.195,9.773-71.066-20.9-71.47-21.223
	c-2.824-2.273-6.782-2.493-9.844-0.551c-28.133,17.854-61.811,18.651-85.11,16.174c-17.08-1.814-31.276-5.605-38.995-7.986
	C158.651,135.781,170.018,114.701,187.411,98.908z M121.154,218.665c0-7.933,5.199-14.666,12.365-16.996l-3.153,32.639
	C124.855,231.26,121.154,225.398,121.154,218.665z"/>
<path d="M206.587,218.245c-4.677,0-8.468,3.791-8.468,8.468v13.544c0,4.677,3.791,8.468,8.468,8.468s8.468-3.791,8.468-8.468
	v-13.544C215.055,222.036,211.264,218.245,206.587,218.245z"/>
<path d="M307.111,189.337c-9.575,0-18.577,3.729-25.348,10.499c-3.307,3.307-3.307,8.669,0.001,11.975
	c3.306,3.308,8.668,3.307,11.975,0c3.571-3.572,8.32-5.539,13.372-5.539c5.051,0,9.801,1.967,13.374,5.539
	c1.653,1.654,3.821,2.481,5.987,2.481s4.334-0.826,5.988-2.481c3.307-3.307,3.307-8.669-0.001-11.975
	C325.688,193.067,316.687,189.337,307.111,189.337z"/>
<path d="M231.935,199.838c-13.975-13.977-36.718-13.978-50.696,0c-3.307,3.307-3.307,8.669,0,11.975
	c3.307,3.307,8.669,3.307,11.975,0c3.572-3.572,8.321-5.539,13.372-5.539c5.051,0,9.8,1.967,13.372,5.539
	c1.653,1.653,3.821,2.481,5.987,2.481s4.334-0.826,5.987-2.481C235.242,208.506,235.242,203.145,231.935,199.838z"/>
<path d="M307.111,218.245c-4.678,0-8.468,3.791-8.468,8.468v13.544c0,4.677,3.79,8.468,8.468,8.468s8.468-3.791,8.468-8.468v-13.544
	C315.579,222.036,311.789,218.245,307.111,218.245z"/>
<path d="M273.23,297.805c-9.032,9.032-23.73,9.032-32.763,0c-3.307-3.308-8.669-3.307-11.975,0c-3.307,3.307-3.307,8.669,0,11.975
	c7.819,7.819,18.086,11.726,28.356,11.726c10.269,0,20.54-3.909,28.356-11.725c3.308-3.307,3.308-8.669,0.001-11.976
	C281.899,294.501,276.537,294.5,273.23,297.805z"/>
<path d="M247.995,272.037h17.707c4.678,0,8.468-3.791,8.468-8.468c0-4.677-3.79-8.468-8.468-8.468h-0.386v-17.5
	c0-4.677-3.79-8.468-8.468-8.468c-4.677,0-8.468,3.791-8.468,8.468v17.5h-0.385c-4.677,0-8.468,3.791-8.468,8.468
	C239.527,268.246,243.318,272.037,247.995,272.037z"/>
<path d="M483.414,71.954c7.407,13.202,11.651,28.406,11.651,44.591c0,4.677,3.79,8.468,8.468,8.468s8.468-3.791,8.468-8.468
	C512,56.782,463.38,8.161,403.617,8.161c-28.951,0-56.168,11.274-76.64,31.744c-3.307,3.307-3.307,8.669,0,11.975
	c3.308,3.307,8.669,3.307,11.976,0c15.26-15.26,34.966-24.45,56.195-26.387v91.051c0,1.774,0.57,3.454,1.552,4.854l-0.016,0.011
	l52.315,74.533c-8.282,4.743-17.351,8.229-26.945,10.192c-4.582,0.937-7.535,5.412-6.598,9.993c0.821,4.009,4.349,6.772,8.287,6.772
	c0.562,0,1.134-0.056,1.707-0.174c37.901-7.755,68.983-35.424,81.117-72.208c1.464-4.442-0.948-9.229-5.389-10.694
	c-4.445-1.466-9.23,0.948-10.694,5.389c-5.342,16.192-15.039,30.281-27.627,40.992l-47.398-67.527L483.414,71.954z M473.808,58.007
	l-61.723,42.439V25.504C436.815,27.787,458.721,39.948,473.808,58.007z"/>
<path d="M181.204,409.519H140.56c-4.677,0-8.468,3.791-8.468,8.468v79.684c0,4.677,3.791,8.468,8.468,8.468h40.644
	c4.677,0,8.468-3.791,8.468-8.468v-79.684C189.672,413.311,185.88,409.519,181.204,409.519z M172.736,489.202h-23.708v-62.748
	h23.708V489.202z"/>
<path d="M115.158,387.504H74.514c-4.677,0-8.468,3.791-8.468,8.468v101.699c0,4.677,3.791,8.468,8.468,8.468h40.644
	c4.677,0,8.468-3.791,8.468-8.468V395.972C123.625,391.295,119.834,387.504,115.158,387.504z M106.69,489.202H82.982v-84.764h23.708
	V489.202z"/>
<path d="M49.111,363.795H8.468c-4.677,0-8.468,3.791-8.468,8.468v23.855c0,4.677,3.791,8.468,8.468,8.468s8.468-3.791,8.468-8.468
	v-15.387h23.708v108.473H16.936v-64.858c0-4.677-3.791-8.468-8.468-8.468S0,419.668,0,424.345v73.326
	c0,4.677,3.791,8.468,8.468,8.468h40.644c4.677,0,8.468-3.791,8.468-8.468V372.263C57.579,367.586,53.788,363.795,49.111,363.795z"
	/>
<path d="M427.326,297.749c-26.147,0-47.418,21.271-47.418,47.419c0,26.147,21.271,47.418,47.418,47.418
	c26.147,0,47.418-21.271,47.418-47.418C474.744,319.02,453.472,297.749,427.326,297.749z M418.858,315.889v25.769l-18.218,18.218
	c-2.416-4.365-3.796-9.379-3.796-14.71C396.844,331.296,406.158,319.569,418.858,315.889z M427.326,375.649
	c-5.333,0-10.347-1.38-14.712-3.796l20.699-20.699c1.587-1.587,2.479-3.742,2.479-5.987v-29.277
	c12.7,3.68,22.014,15.407,22.014,29.277C457.808,361.975,444.134,375.649,427.326,375.649z"/>
<circle cx="290.279" cy="405.801" r="8.468"/>
<circle cx="290.279" cy="444.923" r="8.468"/>
<g>
</g>
<g>
</g>
<g>
</g>
<g>
</g>
<g>
</g>
<g>
</g>
<g>
</g>
<g>
</g>
<g>
</g>
<g>
</g>
<g>
</g>
<g>
</g>
<g>
</g>
<g>
</g>
<g>
</g>
</svg>
