<?xml version="1.0" encoding="iso-8859-1"?>
<!-- Generator: Adobe Illustrator 19.0.0, SVG Export Plug-In . SVG Version: 6.00 Build 0)  -->
<svg version="1.1" id="Layer_1" xmlns="http://www.w3.org/2000/svg" xmlns:xlink="http://www.w3.org/1999/xlink" x="0px" y="0px"
	 viewBox="0 0 512 512" style="enable-background:new 0 0 512 512;" xml:space="preserve">
<g>
	<polygon style="fill:#FFFFFF;" points="360,434.016 240,363.424 240,212.352 360,134.704 	"/>
	<rect x="16" y="248" style="fill:#FFFFFF;" width="16" height="80"/>
	<rect x="48" y="216" style="fill:#FFFFFF;" width="176" height="144"/>
</g>
<g>
	<rect x="48" y="288" style="fill:#DCDDDE;" width="176" height="72"/>
	<polygon style="fill:#DCDDDE;" points="360,440 240,368 240,288 360,288 	"/>
	<rect x="16" y="288" style="fill:#DCDDDE;" width="16" height="40"/>
</g>
<path style="fill:#44C8F5;" d="M416,327.192v-78.384c18.232,3.72,32,19.872,32,39.192S434.232,323.472,416,327.192z"/>
<g>
	<polygon style="fill:#F37053;" points="168,496 128,496 96,368 152,368 152,448 168,472 	"/>
	<rect x="376" y="120" style="fill:#F37053;" width="24" height="328"/>
</g>
<g>
	<polygon style="fill:#FFD768;" points="136,168 104,144 8,144 8,64 136,64 	"/>
	<polygon style="fill:#FFD768;" points="184,120 216,96 312,96 312,16 184,16 	"/>
</g>
<g>
	<path style="fill:#0C3847;" d="M464,288c0-28.152-20.904-51.456-48-55.36V104h-56v11.648L229.64,200H32v32H0v112h32v32h57.752
		l32,128H176v-34.424l-16-24V415.28c20.056-3.384,35.888-19.224,39.28-39.28h30.544L360,452.576V464h56V343.36
		C443.096,339.456,464,316.152,464,288z M32,328H16v-80h16V328z M160,488h-25.752l-28-112H144v74.424l16,24V488z M160,398.864V376
		h22.864C179.952,387.192,171.192,395.952,160,398.864z M224,360H48V216h176V360z M360,434.016l-120-70.592V212.352l120-77.648
		V434.016z M400,376v16v56h-24V120h24V376z M416,327.192v-78.384c18.232,3.72,32,19.872,32,39.192S434.232,323.472,416,327.192z"/>
	<path style="fill:#0C3847;" d="M144,184V56H0v96h101.336L144,184z M16,72h112v80l-21.336-16H16V72z"/>
	<rect x="32" y="96" style="fill:#0C3847;" width="16" height="16"/>
	<rect x="64" y="96" style="fill:#0C3847;" width="16" height="16"/>
	<rect x="96" y="96" style="fill:#0C3847;" width="16" height="16"/>
	<rect x="64" y="232" style="fill:#0C3847;" width="16" height="16"/>
	<rect x="96" y="232" style="fill:#0C3847;" width="16" height="16"/>
	<path style="fill:#0C3847;" d="M320,104V8H176v128l42.664-32H320z M192,104V24h112v64h-90.664L192,104z"/>
	<rect x="272" y="48" style="fill:#0C3847;" width="16" height="16"/>
	<rect x="240" y="48" style="fill:#0C3847;" width="16" height="16"/>
	<rect x="208" y="48" style="fill:#0C3847;" width="16" height="16"/>
	<rect x="64" y="328" style="fill:#0C3847;" width="144" height="16"/>
	
		<rect x="435.987" y="383.936" transform="matrix(0.5 0.866 -0.866 0.5 561.4125 -188.5373)" style="fill:#0C3847;" width="16" height="16"/>
	
		<rect x="460.853" y="364.865" transform="matrix(0.7071 0.7071 -0.7071 0.7071 400.9794 -222.3192)" style="fill:#0C3847;" width="16" height="16"/>
	
		<rect x="479.941" y="340" transform="matrix(0.866 0.5 -0.5 0.866 239.3787 -197.3506)" style="fill:#0C3847;" width="16" height="16"/>
	
		<rect x="491.869" y="311.052" transform="matrix(0.9659 0.2588 -0.2588 0.9659 99.6041 -118.4994)" style="fill:#0C3847;" width="16" height="16"/>
	<rect x="496" y="280" style="fill:#0C3847;" width="16" height="16"/>
	
		<rect x="491.897" y="248.909" transform="matrix(0.9659 -0.2588 0.2588 0.9659 -49.458 138.1302)" style="fill:#0C3847;" width="16" height="16"/>
	
		<rect x="479.941" y="220.008" transform="matrix(0.866 -0.5 0.5 0.866 -48.6317 274.5247)" style="fill:#0C3847;" width="16" height="16"/>
	
		<rect x="460.887" y="195.131" transform="matrix(-0.7071 -0.7071 0.7071 -0.7071 656.8041 678.3199)" style="fill:#0C3847;" width="16" height="16"/>
	
		<rect x="435.984" y="176.077" transform="matrix(-0.866 -0.5 0.5 -0.866 736.442 565.4886)" style="fill:#0C3847;" width="16" height="16"/>
</g>
<g>
</g>
<g>
</g>
<g>
</g>
<g>
</g>
<g>
</g>
<g>
</g>
<g>
</g>
<g>
</g>
<g>
</g>
<g>
</g>
<g>
</g>
<g>
</g>
<g>
</g>
<g>
</g>
<g>
</g>
</svg>
